# xmcd
#
# Track frame offsets:
#	150
#	12775
#	26215
#	38960
#	52505
#	65525
#	77725
#	90857
#	104375
#	116767
#	129240
#	142877
#	155995
#	169325
#	183002
#	195885
#	209802
#	223677
#	236630
#	249802
#	263337
#
# Disc length: 3686 seconds
#
# Revision: 0
# Processed by: cddbd v1.5.1PL2 Copyright (c) Steve Scherf et al.
# Submitted via: EasyCDDAExtractor 4.5.0.2
#
DISCID=120e6415
DTITLE=Tommy McLennan - I'm a Guitar King 1939-42
DYEAR=1990
DGENRE=Blues
TTITLE0=Brown Skin Girl
TTITLE1=Baby Don't You Want To Go
TTITLE2=I'm Goin' Don't You Know
TTITLE3=She's Just Good Huggin'-Size
TTITLE4=My Little Girl
TTITLE5=My Baby's Doggin' Me
TTITLE6=She's A Good Looking Mama
TTITLE7=New Sugar Mama
TTITLE8=Down To Skin And Bones
TTITLE9=Katie Mae Blues
TTITLE10=Love With A Feeling
TTITLE11=Drop Down Mama
TTITLE12=Black Minnie
TTITLE13=Elsie Blues
TTITLE14=Cross Cut Saw Blues
TTITLE15=You Can't Read My Mind
TTITLE16=Deep Blue Sea Blues
TTITLE17=I'm A Guitar King
TTITLE18=It's A Cryin' Pity
TTITLE19=Mozelle Blues
TTITLE20=Bluebird Blues
EXTD=
EXTT0=
EXTT1=
EXTT2=
EXTT3=
EXTT4=
EXTT5=
EXTT6=
EXTT7=
EXTT8=
EXTT9=
EXTT10=
EXTT11=
EXTT12=
EXTT13=
EXTT14=
EXTT15=
EXTT16=
EXTT17=
EXTT18=
EXTT19=
EXTT20=
PLAYORDER=
